<svg id="Calque_1" data-name="Calque 1" xmlns="http://www.w3.org/2000/svg" xmlns:xlink="http://www.w3.org/1999/xlink" viewBox="0 0 149.95 53.09" width="149.95" height="53.09"><defs><style>.cls-1{fill:#ed1c24;}.cls-2{fill:url(#Nouvelle_nuance_de_dégradé_1);}.cls-3{fill:url(#Nouvelle_nuance_de_dégradé_1-2);}.cls-4{fill:url(#Nouvelle_nuance_de_dégradé_1-3);}.cls-5{fill:url(#Nouvelle_nuance_de_dégradé_1-4);}.cls-6{fill:#58595b;}</style><radialGradient id="Nouvelle_nuance_de_dégradé_1" cx="1670.04" cy="276.11" r="12.08" gradientTransform="matrix(-1, 0, 0, 1, 1684.61, -266)" gradientUnits="userSpaceOnUse"><stop offset="0" stop-color="#f69679"/><stop offset="1" stop-color="#ed1c24"/></radialGradient><radialGradient id="Nouvelle_nuance_de_dégradé_1-2" cx="1670.04" cy="276.11" r="12.08" xlink:href="#Nouvelle_nuance_de_dégradé_1"/><radialGradient id="Nouvelle_nuance_de_dégradé_1-3" cx="1670.04" cy="276.11" r="12.08" xlink:href="#Nouvelle_nuance_de_dégradé_1"/><radialGradient id="Nouvelle_nuance_de_dégradé_1-4" cx="1670.04" cy="276.11" r="12.08" xlink:href="#Nouvelle_nuance_de_dégradé_1"/></defs><circle class="cls-1" cx="51.52" cy="27.14" r="3.8"/><path class="cls-1" d="M84.91,30.36l11-27.94h3l10.71,27.94h-2.72l-2.3-6.28A3.8,3.8,0,0,0,101,21.59H93.56A3.8,3.8,0,0,0,90,24.05l-2.37,6.31Zm12.38-11h0a3.8,3.8,0,0,0,3.56-5.13h0a3.8,3.8,0,0,0-7.12,0h0A3.8,3.8,0,0,0,97.29,19.34Z"/><path class="cls-1" d="M115,10.64a3.79,3.79,0,0,0,6.46,0l5.16-8.25h3.07l-9.53,14.81a3.86,3.86,0,0,0-.6,2.06V30.36h-2.64V19.46a3.8,3.8,0,0,0-.58-2l-9.39-15h3Z"/><path class="cls-1" d="M147.37,22.58c0-2-.92-3.72-7.63-5.11-7.3-1.5-9-4.17-9-8,0-1.73,1-7.75,9.07-7.75s9.32,6,9.32,8.2l-2.46.14c0-2.19-2-4.6-7.18-4.6-4,0-6.17,1.86-6.17,4.48,0,2.14,1.22,3.7,6.59,4.89,5.8,1.28,10,2.51,10,8.15,0,6.16-4.91,8.15-10,8.15s-9.87-2.29-9.87-8.94l2.49-.14c0,1.89,1.17,5.38,7.41,5.38C145.74,27.46,147.37,24.79,147.37,22.58Z"/><path class="cls-1" d="M83.69,13.3A18.68,18.68,0,0,0,83,10,14.65,14.65,0,0,0,81.54,7a8.69,8.69,0,0,0-2.29-2.47,10,10,0,0,0-2-1.12,10.47,10.47,0,0,0-2.11-.64,16.41,16.41,0,0,0-2.22-.27c-.75,0-2.31-.06-3.09-.06H62.69V30.36h7.14c.94,0,2.66-.05,3.56-.14a14.81,14.81,0,0,0,2.62-.5,11.36,11.36,0,0,0,2.41-1,8.58,8.58,0,0,0,2.11-1.75,10.19,10.19,0,0,0,1.61-2.31,14.32,14.32,0,0,0,1-2.64,17.47,17.47,0,0,0,.56-2.81,22.76,22.76,0,0,0,.18-2.83A24.44,24.44,0,0,0,83.69,13.3ZM78,25.57c-2.31,2.51-5.85,2.54-8.35,2.54s-4.27-1.52-4.27-3.8V8.47a3.77,3.77,0,0,1,3.8-3.8c3,0,5.88,0,7.87,1.6,2.4,2,3.12,5.35,3.12,9.27C80.12,19.72,79.91,23.45,78,25.57Z"/><path class="cls-2" d="M12.42,10A2.16,2.16,0,0,1,14,8l1.29-8H1.56A1.61,1.61,0,0,0,0,1.61V15ZM4.64,4.9H6.42V3.12H8V4.9H9.8V6.51H8V8.28H6.42V6.51H4.64Z"/><path class="cls-3" d="M35.36,24a.94.94,0,0,0,.54-.48,1,1,0,0,0,.15-.55.87.87,0,0,0-.47-.88,3.62,3.62,0,0,0-1.42-.21H32.74V24.1h1.61A3.35,3.35,0,0,0,35.36,24Z"/><path class="cls-4" d="M35.94,25.65a2.55,2.55,0,0,0-1.37-.3H32.74v2.52h1.88c1.19,0,1.78-.42,1.78-1.28A1,1,0,0,0,35.94,25.65Z"/><path class="cls-5" d="M39.91,0H17.08L15.75,8.31a2.15,2.15,0,0,1,1,1.8v.12l10.11,5.22A2.15,2.15,0,1,1,26,17.14c0-.05,0-.1,0-.14l-10.1-5.22a2.14,2.14,0,0,1-1.35.48,2.19,2.19,0,0,1-1.5-.61L0,16.88v12.7a1.61,1.61,0,0,0,1.61,1.61H39.91a1.61,1.61,0,0,0,1.61-1.61v-28A1.61,1.61,0,0,0,39.91,0ZM25.33,28a2.66,2.66,0,0,1-1.18,1,4.56,4.56,0,0,1-1.85.35,4.21,4.21,0,0,1-2.12-.48,2.79,2.79,0,0,1-.95-.92,2.07,2.07,0,0,1-.37-1.13.73.73,0,0,1,.22-.54.75.75,0,0,1,.56-.23.66.66,0,0,1,.47.18,1.37,1.37,0,0,1,.33.52,3.67,3.67,0,0,0,.35.69,1.44,1.44,0,0,0,.54.46,2,2,0,0,0,.92.18,2,2,0,0,0,1.26-.36,1.1,1.1,0,0,0,.49-.91,1,1,0,0,0-.26-.7,1.85,1.85,0,0,0-.68-.41q-.42-.13-1.11-.3a7.32,7.32,0,0,1-1.56-.51,2.49,2.49,0,0,1-1-.8A2.08,2.08,0,0,1,19,22.82a2.15,2.15,0,0,1,.39-1.27,2.48,2.48,0,0,1,1.13-.85,4.57,4.57,0,0,1,1.73-.3,4.06,4.06,0,0,1,1.38.2,2.89,2.89,0,0,1,1,.52,2.33,2.33,0,0,1,.56.69,1.58,1.58,0,0,1,.18.7.85.85,0,0,1-.23.57.71.71,0,0,1-.55.25.65.65,0,0,1-.46-.15,2,2,0,0,1-.34-.49,2.34,2.34,0,0,0-.57-.77,1.66,1.66,0,0,0-1.06-.27,1.83,1.83,0,0,0-1.09.3.84.84,0,0,0-.42.71.75.75,0,0,0,.14.45,1.42,1.42,0,0,0,.39.33,2.75,2.75,0,0,0,.51.21l.83.22c.49.12.93.24,1.33.38a4,4,0,0,1,1,.5,2,2,0,0,1,.65.75,2.32,2.32,0,0,1,.24,1.1A2.56,2.56,0,0,1,25.33,28Zm3.72.26a1.18,1.18,0,0,1-.24.8.87.87,0,0,1-.65.26.8.8,0,0,1-.62-.27,1.09,1.09,0,0,1-.25-.79V21.34a1.11,1.11,0,0,1,.25-.8.79.79,0,0,1,.62-.26.84.84,0,0,1,.65.26,1.14,1.14,0,0,1,.24.8ZM37.81,28a2.22,2.22,0,0,1-1,.86,3.77,3.77,0,0,1-.91.24,10.43,10.43,0,0,1-1.2.06H32.05a1.09,1.09,0,0,1-.82-.25,1.13,1.13,0,0,1-.25-.82V21.61a1.16,1.16,0,0,1,.25-.82,1.12,1.12,0,0,1,.82-.25h2.8a6.82,6.82,0,0,1,1.08.07A2.14,2.14,0,0,1,37.65,22a2.08,2.08,0,0,1,.12.71,2,2,0,0,1-1.3,1.91,2.11,2.11,0,0,1,1.71,2.11A2.32,2.32,0,0,1,37.81,28Z"/><path class="cls-6" d="M22.71,37.07a2,2,0,0,0-1.23-.35,3.05,3.05,0,0,0-.6.06,1.71,1.71,0,0,0-.52.2,1.09,1.09,0,0,0-.5,1,.73.73,0,0,0,.2.55,1.42,1.42,0,0,0,.52.34,4.46,4.46,0,0,0,.75.22l.84.18c.29.07.57.15.85.24a2.85,2.85,0,0,1,.74.37,1.76,1.76,0,0,1,.53.59,2,2,0,0,1-.06,1.88,2,2,0,0,1-.66.67,3.07,3.07,0,0,1-.91.38,4.26,4.26,0,0,1-1,.11,4.32,4.32,0,0,1-1.15-.15,2.8,2.8,0,0,1-1-.46,2.28,2.28,0,0,1-.65-.79,2.66,2.66,0,0,1-.23-1.14h.91a1.65,1.65,0,0,0,.18.79,1.72,1.72,0,0,0,.46.54,2.12,2.12,0,0,0,.68.31,3,3,0,0,0,.79.1,3.66,3.66,0,0,0,.65-.06,1.8,1.8,0,0,0,.59-.21,1.1,1.1,0,0,0,.43-.4,1.16,1.16,0,0,0,.16-.65.93.93,0,0,0-.2-.61,1.49,1.49,0,0,0-.52-.38,4.41,4.41,0,0,0-.75-.24L21.22,40c-.29-.07-.57-.14-.85-.23a2.77,2.77,0,0,1-.74-.33A1.51,1.51,0,0,1,18.9,38a2,2,0,0,1,.22-1,2.19,2.19,0,0,1,.59-.66,2.67,2.67,0,0,1,.84-.38,3.54,3.54,0,0,1,1-.13,3.72,3.72,0,0,1,1,.13,2.37,2.37,0,0,1,.84.42,2,2,0,0,1,.57.72,2.61,2.61,0,0,1,.22,1h-.91A1.49,1.49,0,0,0,22.71,37.07Z"/><path class="cls-6" d="M29.78,43.32l-1.06-4.17h0l-1.05,4.17h-.93L25,38.08h1l1.18,4.28h0l1-4.28h1l1.09,4.28h0l1.18-4.28h.89L30.7,43.32Z"/><path class="cls-6" d="M33.24,37.14V36.08h.86v1.06Zm.86.94v5.24h-.86V38.08Z"/><path class="cls-6" d="M36.09,42.15a.86.86,0,0,0,.32.31,1.28,1.28,0,0,0,.45.17,2.15,2.15,0,0,0,.51,0l.43,0a1.64,1.64,0,0,0,.41-.11.67.67,0,0,0,.31-.24.63.63,0,0,0,.12-.4.58.58,0,0,0-.25-.51,2.3,2.3,0,0,0-.63-.27,8.43,8.43,0,0,0-.83-.2,4.76,4.76,0,0,1-.83-.24,1.83,1.83,0,0,1-.64-.44,1.2,1.2,0,0,1-.25-.79,1.23,1.23,0,0,1,.18-.68,1.47,1.47,0,0,1,.46-.47,2.31,2.31,0,0,1,.62-.26,2.86,2.86,0,0,1,.7-.09A4.15,4.15,0,0,1,38,38a1.89,1.89,0,0,1,.67.27,1.39,1.39,0,0,1,.46.5,2,2,0,0,1,.2.8h-.86a.87.87,0,0,0-.13-.42.94.94,0,0,0-.29-.27,1.16,1.16,0,0,0-.38-.15,1.93,1.93,0,0,0-.42,0,1.72,1.72,0,0,0-.39,0,1.36,1.36,0,0,0-.36.1.67.67,0,0,0-.26.2.52.52,0,0,0-.1.33.48.48,0,0,0,.15.37,1.44,1.44,0,0,0,.4.25,4,4,0,0,0,.55.16l.61.14a4.64,4.64,0,0,1,.64.17,2.35,2.35,0,0,1,.55.27,1.4,1.4,0,0,1,.38.42,1.22,1.22,0,0,1,.15.63,1.49,1.49,0,0,1-.2.79,1.39,1.39,0,0,1-.52.5,2.07,2.07,0,0,1-.72.27,4.34,4.34,0,0,1-.8.08,3.7,3.7,0,0,1-.83-.09,2,2,0,0,1-.7-.3,1.53,1.53,0,0,1-.49-.55,1.84,1.84,0,0,1-.2-.82H36A.9.9,0,0,0,36.09,42.15Z"/><path class="cls-6" d="M41.15,42.15a1,1,0,0,0,.32.31,1.44,1.44,0,0,0,.45.17,2.24,2.24,0,0,0,.52,0,3.07,3.07,0,0,0,.42,0,1.85,1.85,0,0,0,.42-.11.73.73,0,0,0,.31-.24.63.63,0,0,0,.12-.4.61.61,0,0,0-.25-.51,2.37,2.37,0,0,0-.64-.27,7.79,7.79,0,0,0-.83-.2,5,5,0,0,1-.83-.24,1.79,1.79,0,0,1-.63-.44,1.15,1.15,0,0,1-.25-.79,1.32,1.32,0,0,1,.17-.68,1.47,1.47,0,0,1,.46-.47,2.53,2.53,0,0,1,.63-.26,2.72,2.72,0,0,1,.69-.09,4.25,4.25,0,0,1,.83.08,1.77,1.77,0,0,1,.66.27,1.31,1.31,0,0,1,.46.5,1.88,1.88,0,0,1,.2.8h-.85a.87.87,0,0,0-.14-.42.81.81,0,0,0-.28-.27,1.26,1.26,0,0,0-.38-.15,2,2,0,0,0-.42,0,1.72,1.72,0,0,0-.39,0,1.18,1.18,0,0,0-.36.1.79.79,0,0,0-.27.2.52.52,0,0,0-.1.33.46.46,0,0,0,.16.37,1.3,1.3,0,0,0,.4.25,3.29,3.29,0,0,0,.55.16l.61.14a4.5,4.5,0,0,1,.63.17,2.17,2.17,0,0,1,.55.27,1.31,1.31,0,0,1,.39.42,1.33,1.33,0,0,1,.14.63,1.49,1.49,0,0,1-.19.79,1.55,1.55,0,0,1-.52.5,2.23,2.23,0,0,1-.72.27,4.43,4.43,0,0,1-.8.08,3.7,3.7,0,0,1-.83-.09,2.06,2.06,0,0,1-.71-.3,1.51,1.51,0,0,1-.48-.55,1.84,1.84,0,0,1-.21-.82H41A1,1,0,0,0,41.15,42.15Z"/><path class="cls-6" d="M49.52,36.08v7.24h-1V36.08Z"/><path class="cls-6" d="M51.81,38.08v.83h0a1.8,1.8,0,0,1,1.7-1,2.17,2.17,0,0,1,.86.15,1.33,1.33,0,0,1,.85,1,3.21,3.21,0,0,1,.09.78v3.45h-.86V39.77A1,1,0,0,0,54.2,39a1.06,1.06,0,0,0-.78-.29,1.81,1.81,0,0,0-.69.13,1.27,1.27,0,0,0-.48.34,1.55,1.55,0,0,0-.29.52,2.28,2.28,0,0,0-.1.66v3H51V38.08Z"/><path class="cls-6" d="M57.29,42.15a.86.86,0,0,0,.32.31,1.35,1.35,0,0,0,.45.17,2.21,2.21,0,0,0,.51,0l.43,0a1.64,1.64,0,0,0,.41-.11.67.67,0,0,0,.31-.24.58.58,0,0,0,.13-.4.59.59,0,0,0-.26-.51,2.3,2.3,0,0,0-.63-.27,8.43,8.43,0,0,0-.83-.2,5,5,0,0,1-.83-.24,1.79,1.79,0,0,1-.63-.44,1.16,1.16,0,0,1-.26-.79,1.23,1.23,0,0,1,.18-.68,1.47,1.47,0,0,1,.46-.47,2.25,2.25,0,0,1,.63-.26,2.72,2.72,0,0,1,.69-.09,4.15,4.15,0,0,1,.82.08,1.82,1.82,0,0,1,.67.27,1.39,1.39,0,0,1,.46.5,2,2,0,0,1,.2.8h-.86a.77.77,0,0,0-.13-.42.9.9,0,0,0-.28-.27,1.26,1.26,0,0,0-.38-.15,2,2,0,0,0-.42,0,1.87,1.87,0,0,0-.4,0,1.36,1.36,0,0,0-.36.1.86.86,0,0,0-.26.2.52.52,0,0,0-.1.33.46.46,0,0,0,.16.37,1.19,1.19,0,0,0,.4.25,3.29,3.29,0,0,0,.55.16l.61.14a4.91,4.91,0,0,1,.63.17,2.17,2.17,0,0,1,.55.27,1.18,1.18,0,0,1,.38.42,1.22,1.22,0,0,1,.15.63,1.41,1.41,0,0,1-.2.79,1.44,1.44,0,0,1-.51.5,2.2,2.2,0,0,1-.73.27,4.23,4.23,0,0,1-.79.08,3.86,3.86,0,0,1-.84-.09A2.09,2.09,0,0,1,57,43a1.63,1.63,0,0,1-.49-.55,2,2,0,0,1-.2-.82h.86A1,1,0,0,0,57.29,42.15Z"/><path class="cls-6" d="M63.94,38.08v.76h-1v3.25a.78.78,0,0,0,0,.24.19.19,0,0,0,.09.14.36.36,0,0,0,.2.07l.33,0h.39v.76h-.66a3.1,3.1,0,0,1-.57,0,.83.83,0,0,1-.38-.17.7.7,0,0,1-.22-.34,1.94,1.94,0,0,1-.07-.59V38.84h-.89v-.76H62V36.51h.86v1.57Z"/><path class="cls-6" d="M65,37.14V36.08h.86v1.06Zm.86.94v5.24H65V38.08Z"/><path class="cls-6" d="M69.38,38.08v.76h-1v3.25a.78.78,0,0,0,0,.24.19.19,0,0,0,.09.14.36.36,0,0,0,.2.07l.33,0h.39v.76h-.66a3.1,3.1,0,0,1-.57,0,.83.83,0,0,1-.38-.17.7.7,0,0,1-.22-.34,1.94,1.94,0,0,1-.07-.59V38.84h-.89v-.76h.89V36.51h.86v1.57Z"/><path class="cls-6" d="M73.87,43.32v-.83h0a1.77,1.77,0,0,1-.7.71,2.11,2.11,0,0,1-1,.23,2.34,2.34,0,0,1-.86-.14,1.35,1.35,0,0,1-.56-.39,1.54,1.54,0,0,1-.3-.6,3.12,3.12,0,0,1-.08-.78V38.08h.85v3.55a1,1,0,0,0,1.07,1,1.76,1.76,0,0,0,.68-.12,1.34,1.34,0,0,0,.49-.34,1.58,1.58,0,0,0,.28-.53,1.89,1.89,0,0,0,.1-.65v-3h.86v5.24Z"/><path class="cls-6" d="M78.2,38.08v.76h-1v3.25a.78.78,0,0,0,0,.24.24.24,0,0,0,.1.14.33.33,0,0,0,.19.07l.33,0h.39v.76h-.65a3,3,0,0,1-.57,0,.87.87,0,0,1-.39-.17.7.7,0,0,1-.22-.34,2.32,2.32,0,0,1-.07-.59V38.84h-.9v-.76h.9V36.51h.85v1.57Z"/><path class="cls-6" d="M82.87,43a2.39,2.39,0,0,1-1.48.45,2.79,2.79,0,0,1-1.09-.2,2.12,2.12,0,0,1-.77-.57,2.63,2.63,0,0,1-.48-.87,4.3,4.3,0,0,1-.17-1.11,3.16,3.16,0,0,1,.18-1.09,2.55,2.55,0,0,1,.51-.86,2.19,2.19,0,0,1,.78-.57,2.31,2.31,0,0,1,1-.21,2.13,2.13,0,0,1,1.15.29,2.27,2.27,0,0,1,.74.74,2.75,2.75,0,0,1,.39,1,3.86,3.86,0,0,1,.08,1H79.79a2.39,2.39,0,0,0,.08.66,1.41,1.41,0,0,0,.3.55,1.42,1.42,0,0,0,.51.38,1.88,1.88,0,0,0,.74.14,1.46,1.46,0,0,0,.89-.25,1.24,1.24,0,0,0,.47-.77h.85A2.11,2.11,0,0,1,82.87,43Zm-.22-3.36a1.42,1.42,0,0,0-.31-.48,1.62,1.62,0,0,0-.46-.31,1.45,1.45,0,0,0-.59-.12,1.4,1.4,0,0,0-.6.12,1.27,1.27,0,0,0-.46.32,1.54,1.54,0,0,0-.31.47,2.15,2.15,0,0,0-.13.57h3A1.59,1.59,0,0,0,82.65,39.62Z"/><path class="cls-6" d="M87.3,39.62a2.46,2.46,0,0,1,.48-.87,2.23,2.23,0,0,1,.8-.58,2.84,2.84,0,0,1,2.19,0,2.32,2.32,0,0,1,.8.58,2.63,2.63,0,0,1,.48.87,3.49,3.49,0,0,1,.16,1.08,3.44,3.44,0,0,1-.16,1.08,2.49,2.49,0,0,1-.48.86,2.32,2.32,0,0,1-.8.58,3,3,0,0,1-2.19,0,2.23,2.23,0,0,1-.8-.58,2.34,2.34,0,0,1-.48-.86,3.44,3.44,0,0,1-.17-1.08A3.49,3.49,0,0,1,87.3,39.62Zm.87,1.93a1.86,1.86,0,0,0,.35.62,1.49,1.49,0,0,0,.52.38,1.51,1.51,0,0,0,.63.13,1.45,1.45,0,0,0,.63-.13,1.4,1.4,0,0,0,.52-.38,1.7,1.7,0,0,0,.35-.62,2.49,2.49,0,0,0,.13-.85,2.43,2.43,0,0,0-.13-.84,1.75,1.75,0,0,0-.35-.63,1.3,1.3,0,0,0-.52-.38,1.46,1.46,0,0,0-.63-.14,1.52,1.52,0,0,0-.63.14,1.37,1.37,0,0,0-.52.38,1.91,1.91,0,0,0-.35.63,2.7,2.7,0,0,0-.12.84A2.77,2.77,0,0,0,88.17,41.55Z"/><path class="cls-6" d="M92.7,38.84v-.76h.88V37.3a1.25,1.25,0,0,1,.37-1A1.6,1.6,0,0,1,95,36l.27,0a1.06,1.06,0,0,1,.28.06v.75a.84.84,0,0,0-.24-.06H95.1a.87.87,0,0,0-.49.12.56.56,0,0,0-.17.47v.73h1v.76h-1v4.48h-.86V38.84Z"/><path class="cls-6" d="M21.71,45.31h.5l.53,0,.49.08a1.38,1.38,0,0,1,.39.15,1.9,1.9,0,0,1,.61.59,1.68,1.68,0,0,1,.24.92,1.73,1.73,0,0,1-.28,1,1.57,1.57,0,0,1-.8.62v0a1.66,1.66,0,0,1,1,.61,1.81,1.81,0,0,1,.36,1.14,2.28,2.28,0,0,1-.14.77,2.18,2.18,0,0,1-.42.66,2.09,2.09,0,0,1-.69.46,2.33,2.33,0,0,1-.95.18H19.08V45.31ZM22,48.42a1.94,1.94,0,0,0,1.19-.29,1,1,0,0,0,.36-.86,1.18,1.18,0,0,0-.13-.61.83.83,0,0,0-.33-.34,1.29,1.29,0,0,0-.49-.16,5.74,5.74,0,0,0-.6,0H20v2.29Zm.48,3.3a1.38,1.38,0,0,0,1-.34,1.24,1.24,0,0,0,.36-1,1.13,1.13,0,0,0-.13-.58,1,1,0,0,0-.35-.37,1.49,1.49,0,0,0-.5-.19,2.88,2.88,0,0,0-.59-.06H20v2.49Z"/><path class="cls-6" d="M25.94,46.36v-1h.86v1Zm.86.94v5.24h-.86V47.3Z"/><path class="cls-6" d="M28,48.85A2.32,2.32,0,0,1,28.5,48a2.29,2.29,0,0,1,.8-.59,2.65,2.65,0,0,1,1.09-.21,2.7,2.7,0,0,1,1.1.21,2.4,2.4,0,0,1,1.28,1.46,3.69,3.69,0,0,1,0,2.15,2.48,2.48,0,0,1-.49.87,2.32,2.32,0,0,1-.79.58,2.88,2.88,0,0,1-1.1.2,2.83,2.83,0,0,1-1.09-.2,2.26,2.26,0,0,1-.8-.58A2.48,2.48,0,0,1,28,51a3.69,3.69,0,0,1,0-2.15Zm.88,1.93a2,2,0,0,0,.35.62,1.62,1.62,0,0,0,.52.38,1.59,1.59,0,0,0,1.26,0,1.62,1.62,0,0,0,.52-.38,1.79,1.79,0,0,0,.35-.62,2.84,2.84,0,0,0,0-1.7,1.7,1.7,0,0,0-.35-.62,1.52,1.52,0,0,0-2.3,0,1.86,1.86,0,0,0-.35.62,3.07,3.07,0,0,0,0,1.7Z"/><path class="cls-6" d="M34,46.36v-1h.86v1Zm.86.94v5.24H34V47.3Z"/><path class="cls-6" d="M37,47.3v.83h0a1.81,1.81,0,0,1,1.7-1,2.38,2.38,0,0,1,.86.14,1.43,1.43,0,0,1,.55.4,1.31,1.31,0,0,1,.3.6,3.1,3.1,0,0,1,.09.78v3.44h-.86V49a1,1,0,0,0-1.06-1.05,1.78,1.78,0,0,0-.69.12,1.3,1.3,0,0,0-.48.35,1.32,1.32,0,0,0-.29.52,2.27,2.27,0,0,0-.1.65v3H36.2V47.3Z"/><path class="cls-6" d="M41.3,48.07v-.76h.88v-.79a1.23,1.23,0,0,1,.37-1,1.59,1.59,0,0,1,1.08-.33l.28,0a1.63,1.63,0,0,1,.28.07v.75A.84.84,0,0,0,44,46l-.25,0a.86.86,0,0,0-.49.13.53.53,0,0,0-.17.46v.74h1v.76H43v4.47h-.86V48.07Z"/><path class="cls-6" d="M44.71,48.85a2.45,2.45,0,0,1,.48-.87,2.48,2.48,0,0,1,.8-.59,2.7,2.7,0,0,1,1.1-.21,2.65,2.65,0,0,1,1.09.21A2.38,2.38,0,0,1,49,48a2.45,2.45,0,0,1,.48.87,3.69,3.69,0,0,1,0,2.15,2.63,2.63,0,0,1-.48.87,2.36,2.36,0,0,1-.8.58,2.83,2.83,0,0,1-1.09.2,2.88,2.88,0,0,1-1.1-.2,2.46,2.46,0,0,1-.8-.58,2.63,2.63,0,0,1-.48-.87,3.69,3.69,0,0,1,0-2.15Zm.88,1.93a2,2,0,0,0,.34.62,1.74,1.74,0,0,0,.52.38,1.62,1.62,0,0,0,1.27,0,1.74,1.74,0,0,0,.52-.38,2,2,0,0,0,.34-.62,2.84,2.84,0,0,0,0-1.7,1.84,1.84,0,0,0-.34-.62,1.62,1.62,0,0,0-.52-.39,1.62,1.62,0,0,0-1.27,0,1.62,1.62,0,0,0-.52.39,1.84,1.84,0,0,0-.34.62,2.84,2.84,0,0,0,0,1.7Z"/><path class="cls-6" d="M51.42,47.3v1.11h0a2.42,2.42,0,0,1,.77-.95,2,2,0,0,1,1.16-.28v.91a2.37,2.37,0,0,0-.89.15,1.36,1.36,0,0,0-.58.41,1.75,1.75,0,0,0-.33.67,3.9,3.9,0,0,0-.1.89v2.33h-.86V47.3Z"/><path class="cls-6" d="M54.82,47.3v.77h0a1.9,1.9,0,0,1,1.68-.89,1.93,1.93,0,0,1,.88.2,1.15,1.15,0,0,1,.56.69,1.82,1.82,0,0,1,.69-.66,2,2,0,0,1,1-.23,2.6,2.6,0,0,1,.71.09,1.35,1.35,0,0,1,.55.27,1.12,1.12,0,0,1,.35.47,1.77,1.77,0,0,1,.13.69v3.84h-.86V49.11a3.15,3.15,0,0,0,0-.46,1,1,0,0,0-.15-.37A.86.86,0,0,0,60,48a1.26,1.26,0,0,0-.51-.09,1.35,1.35,0,0,0-1,.37,1.31,1.31,0,0,0-.36,1v3.26h-.86V49.11a2.29,2.29,0,0,0,0-.47,1,1,0,0,0-.16-.37.64.64,0,0,0-.3-.24,1.08,1.08,0,0,0-.48-.09,1.29,1.29,0,0,0-.64.15,1.45,1.45,0,0,0-.68.81,1.29,1.29,0,0,0-.08.38v3.26H54V47.3Z"/><path class="cls-6" d="M66.67,52.65a.76.76,0,0,1-.53-.18.84.84,0,0,1-.19-.62,2.06,2.06,0,0,1-.83.62,2.79,2.79,0,0,1-1,.18,2.87,2.87,0,0,1-.67-.07,1.47,1.47,0,0,1-.55-.26,1.19,1.19,0,0,1-.38-.45,1.56,1.56,0,0,1-.13-.68,1.58,1.58,0,0,1,.15-.73,1.36,1.36,0,0,1,.4-.46,1.94,1.94,0,0,1,.56-.27c.22-.06.43-.11.66-.15s.46-.08.67-.1a3.7,3.7,0,0,0,.56-.11.89.89,0,0,0,.39-.19.48.48,0,0,0,.14-.37.83.83,0,0,0-.11-.45.7.7,0,0,0-.27-.27,1.21,1.21,0,0,0-.38-.12l-.41,0a1.78,1.78,0,0,0-.91.21.87.87,0,0,0-.4.79h-.86a1.94,1.94,0,0,1,.2-.82,1.63,1.63,0,0,1,.49-.55,1.93,1.93,0,0,1,.7-.3,3.7,3.7,0,0,1,.83-.09,5.49,5.49,0,0,1,.7,0,1.68,1.68,0,0,1,.63.21,1.21,1.21,0,0,1,.46.44,1.47,1.47,0,0,1,.17.74v2.7a1.72,1.72,0,0,0,0,.45c0,.09.1.14.23.14a1,1,0,0,0,.27,0v.66A1.22,1.22,0,0,1,66.67,52.65ZM65.47,50a4.85,4.85,0,0,1-.55.09l-.58.08a2.05,2.05,0,0,0-.53.15.89.89,0,0,0-.37.29.78.78,0,0,0-.15.51.69.69,0,0,0,.09.36.64.64,0,0,0,.22.24,1,1,0,0,0,.32.13,2.33,2.33,0,0,0,.38,0,2,2,0,0,0,.73-.12,1.55,1.55,0,0,0,.49-.29,1.13,1.13,0,0,0,.28-.39,1,1,0,0,0,.09-.39v-.88A1.16,1.16,0,0,1,65.47,50Z"/><path class="cls-6" d="M70.33,47.31v.76h-1v3.25a.78.78,0,0,0,0,.24.23.23,0,0,0,.09.14.52.52,0,0,0,.2.07h.72v.76h-.65a3.22,3.22,0,0,1-.58,0,.89.89,0,0,1-.38-.17A.73.73,0,0,1,68.5,52a2.18,2.18,0,0,1-.07-.58V48.07h-.89v-.76h.89V45.73h.86v1.58Z"/><path class="cls-6" d="M71.34,46.36v-1h.86v1Zm.86.94v5.24h-.86V47.3Z"/><path class="cls-6" d="M76.67,48.21a1.29,1.29,0,0,0-.87-.27,1.67,1.67,0,0,0-.78.17,1.39,1.39,0,0,0-.5.46,1.79,1.79,0,0,0-.27.65,3.94,3.94,0,0,0-.08.77,2.82,2.82,0,0,0,.09.71,1.68,1.68,0,0,0,.26.61,1.45,1.45,0,0,0,.48.44,1.54,1.54,0,0,0,.7.16,1.39,1.39,0,0,0,1-.34,1.54,1.54,0,0,0,.44-.94H78a2.43,2.43,0,0,1-.73,1.5,2.25,2.25,0,0,1-1.58.52,2.71,2.71,0,0,1-1.06-.19,2,2,0,0,1-.77-.55,2.29,2.29,0,0,1-.47-.84A3.71,3.71,0,0,1,73.25,50a3.9,3.9,0,0,1,.16-1.1,2.43,2.43,0,0,1,.46-.89,2,2,0,0,1,.78-.6,2.45,2.45,0,0,1,1.08-.22,3.22,3.22,0,0,1,.84.11,1.88,1.88,0,0,1,.68.33,1.7,1.7,0,0,1,.5.56A2.28,2.28,0,0,1,78,49H77.1A1.34,1.34,0,0,0,76.67,48.21Z"/><path class="cls-6" d="M79.63,51.38a1,1,0,0,0,.32.31,1.5,1.5,0,0,0,.45.17,2.84,2.84,0,0,0,.51,0l.43,0a1.64,1.64,0,0,0,.41-.11.83.83,0,0,0,.31-.24.65.65,0,0,0,.12-.4.56.56,0,0,0-.25-.51,2,2,0,0,0-.63-.28c-.26-.07-.53-.13-.83-.19a4,4,0,0,1-.83-.25,1.59,1.59,0,0,1-.63-.44,1.14,1.14,0,0,1-.26-.79,1.25,1.25,0,0,1,.18-.68,1.44,1.44,0,0,1,.46-.46,1.81,1.81,0,0,1,.62-.26,2.86,2.86,0,0,1,.7-.09,4.15,4.15,0,0,1,.82.08,2.08,2.08,0,0,1,.67.26,1.51,1.51,0,0,1,.46.51,2,2,0,0,1,.2.8H82a1,1,0,0,0-.13-.43.94.94,0,0,0-.29-.27A1.42,1.42,0,0,0,81.2,48a1.93,1.93,0,0,0-.42-.05l-.39,0a1.37,1.37,0,0,0-.36.11.67.67,0,0,0-.26.2.48.48,0,0,0-.1.33.5.5,0,0,0,.15.37,1.22,1.22,0,0,0,.4.24,3,3,0,0,0,.55.16l.61.14.64.17a2.35,2.35,0,0,1,.55.27,1.4,1.4,0,0,1,.38.42,1.22,1.22,0,0,1,.15.63,1.47,1.47,0,0,1-.2.79,1.49,1.49,0,0,1-.52.51,2.07,2.07,0,0,1-.72.27,4.33,4.33,0,0,1-.8.07,3.7,3.7,0,0,1-.83-.09,2,2,0,0,1-.7-.3,1.5,1.5,0,0,1-.49-.54,1.88,1.88,0,0,1-.2-.83h.86A1,1,0,0,0,79.63,51.38Z"/></svg>
